#!OML:ASF F:\VICON\USERDATA\INSTALL\rory3\rory3.ASF
:FULLY-SPECIFIED
:DEGREES
45
root 0.4117552792786614 17.333411554328894 12.629853608765366 3.0975394496184414 -5.106219891464231 -5.267366156003558
lfemur -23.942233629965827 6.925477231150586 -12.423036193709615
ltibia 96.63071279230871
lfoot -0.06390394686987522 -12.00595438505194
ltoes -10.935582353959042
rfemur -22.20070276898398 8.343245690114141 35.631061305618225
rtibia 41.4961767978809
rfoot -5.361635066215513 -5.532285614735015
rtoes -0.08962574700843406
lowerback 16.96692760377181 0.28401721317723616 2.730366785335731
upperback -0.021254758085433312 1.6685991236087214 2.9550765033430757
thorax -9.802206880498478 0.5787558782819217 0.16669322971615627
lowerneck -20.890463524513454 -3.98340885104289 -1.9018672400535297
upperneck 15.197499169791852 -5.1967303947598795 2.2599576332481734
head 8.255241653256451 -2.289582924306192 0.48307524520755407
lclavicle -1.9521729781560437e-15 1.1013548979497733e-15
lhumerus -53.17405965521197 -7.096027269022715 98.35852774103407
lradius 105.50545829609942
lwrist 45.5277767084578
lhand -17.873487355579094 6.938151502425212
lfingers 7.125020000000001
lthumb 8.306261085242173 36.74250527593331
rclavicle -1.9521765331098186e-15 1.1013521049827524e-15
rhumerus -46.610818095810785 12.372054292265918 -100.53662425979255
rradius 113.7434540325889
rwrist -15.635835540762697
rhand -23.812165134228067 -102.1808668535035
rfingers 7.125020000000001
rthumb 3.130136176697803 15.180337380310792
46
root 0.4231332096304668 17.35467870221239 13.195041020859756 3.19243109645707 -4.181115803707369 -5.370778714037595
lfemur -29.19371234379505 6.923122155318457 -13.14325064444176
ltibia 97.35573195455183
lfoot -1.2789822847705488 -11.643557254122141
ltoes -12.887086197823619
rfemur -18.97369708892521 8.121559241806466 35.760353762519344
rtibia 41.782558356380235
rfoot -3.4971751919709995 -6.241444147751206
rtoes 0.6070223478933996
lowerback 16.850834354481076 0.43496462745177455 3.1192677896837084
upperback -0.07164582373765749 2.0118612937287543 2.9193715017650255
thorax -9.846433101841926 0.7114332244152759 -0.14179693265562182
lowerneck -20.907525410201806 -4.086366617398225 -1.8532694397723173
upperneck 15.039598833440975 -5.38737959759026 2.2619287385573053
head 8.19834989700895 -2.383188102091488 0.44844420282633013
lclavicle -1.9521729781560437e-15 1.1013548979497733e-15
lhumerus -54.86302661319569 -6.628363381387368 98.4621138798608
lradius 106.73819240193882
lwrist 45.98886222798883
lhand -17.92523130346753 7.254634498207146
lfingers 7.125020000000001
lthumb 8.379740661566293 36.98596370299153
rclavicle -1.952176533109819e-15 1.1013521049827522e-15
rhumerus -45.05477897591715 13.399825869582225 -100.61041071920705
rradius 113.62522490601069
rwrist -15.443166552830258
rhand -23.80045984251504 -101.77684779756437
rfingers 7.125020000000001
rthumb 3.1883916228474978 15.02042673942187
47
root 0.44306879672986765 17.422516525253894 14.070062242732721 3.2896722022572478 -2.9602254887164676 -5.465501549886881
lfemur -31.207733542288135 6.987375334660206 -13.145326394888452
ltibia 96.57953801721362
lfoot -1.5289594180919288 -11.086260715742855
ltoes -13.179118675157415
rfemur -16.231282900231914 7.340365863802154 35.487761026755955
rtibia 41.83747549007647
rfoot -0.9851719192215835 -6.564178417117168
rtoes 1.0071551004134196
lowerback 16.667837857182203 0.5858460909768536 3.536504894483618
upperback -0.1472212848434593 2.350514167899143 2.8355726412777713
thorax -9.862950071146384 0.8037684670283622 -0.4821627238253357
lowerneck -20.90883892478776 -4.225942538570962 -1.8253221794231975
upperneck 14.845019902888012 -5.625811083200112 2.3020127972446396
head 8.189856408669673 -2.4555902607610043 0.4371083593397854
lclavicle -1.9521729781560437e-15 1.1013548979497733e-15
lhumerus -56.27901423486937 -6.367893173323068 98.60808935363656
lradius 108.15746950221973
lwrist 46.419060778618984
lhand -18.048046631104256 7.230132453387136
lfingers 7.125020000000001
lthumb 8.487615028209188 37.118089276996734
rclavicle -1.9521765331098186e-15 1.1013521049827524e-15
rhumerus -43.57675061771161 14.336440953284573 -100.54661864097048
rradius 113.40837096335616
rwrist -14.880010794881564
rhand -23.948670374058253 -106.4036533917871
rfingers 7.125020000000001
rthumb 3.5250185112774246 15.40658470884313
48
root 0.46535843289259915 17.519316640785803 14.618661564330928 3.334747291126763 -1.7528258955179556 -5.566613614902746
lfemur -33.839995374177235 6.681974217366571 -14.0610837661108
ltibia 94.36157864496509
lfoot -2.938627294821896 -11.412305400614056
ltoes -13.386824558962775
rfemur -12.971110153395298 6.808998771066982 35.42363955188467
rtibia 41.93661404093659
rfoot 0.9191073320915297 -6.583401978054209
rtoes 1.1886373615370458
lowerback 16.425458201578852 0.7191183303612051 4.016444640118826
upperback -0.26173518654529393 2.693240967378488 2.7461764349259363
thorax -9.845922403580985 0.9055740841087468 -0.7543964344159029
lowerneck -20.757754259526884 -4.284952465432222 -1.7813468140988404
upperneck 14.602458377991624 -5.936968750853072 2.3403726343634186
head 8.162174242922488 -2.573256462481729 0.41328645699574607
lclavicle -1.9521729781560437e-15 1.1013548979497733e-15
lhumerus -57.4485104992789 -6.267355152431605 98.7404540801914
lradius 109.36922332796883
lwrist 46.22865949655168
lhand -18.012399704457604 7.317287819790775
lfingers 7.125020000000001
lthumb 8.586212727369823 37.247993990658244
rclavicle -1.952176533109819e-15 1.101352104982752e-15
rhumerus -42.43653648460802 15.088129651440532 -100.42847705112166
rradius 113.08689521301379
rwrist -14.336305259431645
rhand -23.760444466719818 -103.8012097718974
rfingers 7.125020000000001
rthumb 3.591179121547871 15.523349586483963
49
root 0.504773962560762 17.692634139135045 16.83362454704319 3.5299156108222363 0.022315293423285087 -5.353686325867891
lfemur -33.9799690475474 6.214709136938805 -14.392305091289751
ltibia 90.58270402692224
lfoot -4.249728528861445 -11.916206300203632
ltoes -13.01746895490534
rfemur -9.935639354270023 6.357155967587763 35.18689046532959
rtibia 42.22840504256058
rfoot 2.5798098019705686 -6.205780695948588
rtoes 0.8657950082240495
lowerback 16.12352444091119 0.833522727893486 4.482892014621475
upperback -0.4357874365944719 2.923213348066515 2.5950079364610588
thorax -9.804967871191003 0.9477591333462151 -1.090113342315692
lowerneck -20.62882551205531 -4.421832724029195 -1.7638428527770422
upperneck 14.420660575941225 -6.2742489796392125 2.4018820663788505
head 8.156825465199919 -2.67070651429597 0.4060208305914096
lclavicle -1.9521729781560437e-15 1.1013548979497733e-15
lhumerus -58.18203530495062 -6.049731926812619 98.8339189276702
lradius 110.22532667017073
lwrist 45.994297399182514
lhand -18.055902017983325 7.240288108821093
lfingers 7.125020000000001
lthumb 8.58905195056817 37.25076736231656
rclavicle -1.952176533109819e-15 1.1013521049827522e-15
rhumerus -41.510179013944466 15.787555709929276 -100.24233955678788
rradius 112.66054508816333
rwrist -13.97707833229856
rhand -23.93621718712939 -109.66958073390661
rfingers 7.125020000000001
rthumb 3.5919305636918435 15.34211231355823
